# xmcd
#
# Track frame offsets:
#	150
#	13305
#	26895
#	39295
#	52142
#	68045
#	81390
#	94052
#	106495
#	119317
#	133905
#	147825
#	161392
#	172905
#	185095
#	198537
#	211095
#	223455
#	234767
#	247295
#
# Disc length: 3435
#
# Revision: 1
# Processed by: cddbd v1.5.1PL0 Copyright (c) Steve Scherf et al.
# Submitted via: ExactAudioCopy v0.90b4
# Normalized: r0:DSETVAR1
#
DISCID=2e0d6914
DTITLE=Various Artist - Sun Risin Blues cd2
DYEAR=2001
DGENRE=Blues
TTITLE0=T-Bone Walker - She's Going To Ruin Me
TTITLE1=T-Bone Walker - Call It Stormy Monday
TTITLE2=Sonny Terry - Beer Garden Blues
TTITLE3=Sonny Terry - Shake Down Blues
TTITLE4=Sonny Terry - Lonesome Train
TTITLE5=Sonny Terry - Custard Pie Blues
TTITLE6=Big Joe Tuner - Sun Risin' Blues
TTITLE7=Big Joe Tuner - Hollywood Bed
TTITLE8=Sonny Boy Williamson - Decoration Day Blues
TTITLE9=Sonny Boy Williamson - Sloppy Drunk Blues
TTITLE10=Connie Curtis Crayton - Blues After Hours
TTITLE11=Connie Curtis Crayton - After Hours Boogie
TTITLE12=Muddy Waters - Gypsy Woman
TTITLE13=Muddy Waters - I Can't Be Satisfied
TTITLE14=Memphis Slim - You Got To Help Me Some
TTITLE15=Brownie McGhee - Key To My Door
TTITLE16=Brownie McGhee - Picking My Tomatoes
TTITLE17=Brownie McGhee - Got To Find My Little Woman
TTITLE18=Brownie McGhee - Barbecue Any Old Time
TTITLE19=Lowell Fulson - San Francisco Blues
EXTD=
EXTT0=
EXTT1=
EXTT2=
EXTT3=
EXTT4=
EXTT5=
EXTT6=
EXTT7=
EXTT8=
EXTT9=
EXTT10=
EXTT11=
EXTT12=
EXTT13=
EXTT14=
EXTT15=
EXTT16=
EXTT17=
EXTT18=
EXTT19=
PLAYORDER=
